<?xml version="1.0" encoding="UTF-8" standalone="no"?>
<svg
   xmlns:dc="http://purl.org/dc/elements/1.1/"
   xmlns:cc="http://creativecommons.org/ns#"
   xmlns:rdf="http://www.w3.org/1999/02/22-rdf-syntax-ns#"
   xmlns:svg="http://www.w3.org/2000/svg"
   xmlns="http://www.w3.org/2000/svg"
   xmlns:sodipodi="http://sodipodi.sourceforge.net/DTD/sodipodi-0.dtd"
   xmlns:inkscape="http://www.inkscape.org/namespaces/inkscape"
   version="1.1"
   width="24"
   height="24"
   viewBox="0 0 24 24"
   id="svg2"
   inkscape:version="0.91 r13725"
   sodipodi:docname="unit_kg.svg">
  <metadata
     id="metadata10">
    <rdf:RDF>
      <cc:Work
         rdf:about="">
        <dc:format>image/svg+xml</dc:format>
        <dc:type
           rdf:resource="http://purl.org/dc/dcmitype/StillImage" />
        <dc:title />
      </cc:Work>
    </rdf:RDF>
  </metadata>
  <defs
     id="defs8" />
  <sodipodi:namedview
     pagecolor="#ffffff"
     bordercolor="#666666"
     borderopacity="1"
     objecttolerance="10"
     gridtolerance="10"
     guidetolerance="10"
     inkscape:pageopacity="0"
     inkscape:pageshadow="2"
     inkscape:window-width="1366"
     inkscape:window-height="706"
     id="namedview6"
     showgrid="false"
     showguides="true"
     inkscape:guide-bbox="true"
     inkscape:zoom="19.666667"
     inkscape:cx="14.020572"
     inkscape:cy="14.170347"
     inkscape:window-x="0"
     inkscape:window-y="25"
     inkscape:window-maximized="1"
     inkscape:current-layer="svg2">
    <sodipodi:guide
       position="14.033898,8.6440678"
       orientation="0,1"
       id="guide3338" />
  </sodipodi:namedview>
  <path
     d="M 5 3 C 3.89 3 3 3.89 3 5 L 3 19 A 2 2 0 0 0 5 21 L 19 21 A 2 2 0 0 0 21 19 L 21 5 C 21 3.89 20.1 3 19 3 L 5 3 z M 6.5585938 6.8105469 L 8.140625 6.8105469 L 8.140625 11.607422 L 8.5683594 11.607422 L 9.8964844 9.4023438 L 11.722656 9.4023438 L 9.8808594 12.068359 L 11.929688 15.267578 L 10.113281 15.267578 L 8.6074219 12.810547 L 8.140625 12.810547 L 8.140625 15.267578 L 6.5585938 15.267578 L 6.5585938 6.8105469 z M 14.445312 9.2929688 C 14.781361 9.2929688 15.070401 9.3652288 15.3125 9.5097656 C 15.558213 9.650689 15.770501 9.8604387 15.951172 10.138672 L 16.064453 9.4023438 L 17.441406 9.4023438 L 17.441406 15.09375 C 17.441406 15.881476 17.19875 16.501448 16.710938 16.953125 C 16.226739 17.404802 15.548568 17.630859 14.677734 17.630859 C 14.36698 17.630859 14.043079 17.588968 13.707031 17.505859 C 13.374597 17.422751 13.062218 17.306353 12.769531 17.158203 L 13.0625 16.080078 C 13.308213 16.195707 13.553116 16.286521 13.798828 16.351562 C 14.044541 16.416602 14.307704 16.449219 14.585938 16.449219 C 15.012321 16.449219 15.329485 16.328037 15.539062 16.085938 C 15.748641 15.847451 15.853516 15.514274 15.853516 15.087891 L 15.853516 14.724609 L 15.837891 14.71875 C 15.66806 14.935555 15.467587 15.100875 15.236328 15.212891 C 15.008683 15.321293 14.740734 15.375 14.433594 15.375 C 13.696456 15.375 13.130191 15.116329 12.736328 14.599609 C 12.342465 14.079277 12.146484 13.379722 12.146484 12.498047 L 12.146484 12.382812 C 12.146484 11.43971 12.342465 10.691232 12.736328 10.134766 C 13.133804 9.5746856 13.704561 9.2929688 14.445312 9.2929688 z M 14.845703 10.523438 C 14.45184 10.523438 14.165339 10.693541 13.988281 11.033203 C 13.814837 11.369251 13.728516 11.819119 13.728516 12.382812 L 13.728516 12.498047 C 13.728516 13.01838 13.814544 13.421864 13.984375 13.710938 C 14.154206 14.000011 14.436508 14.144531 14.833984 14.144531 C 15.079697 14.144531 15.284662 14.10264 15.447266 14.019531 C 15.613483 13.932809 15.748726 13.804303 15.853516 13.630859 L 15.853516 11.082031 C 15.748726 10.90136 15.613483 10.763871 15.447266 10.669922 C 15.284662 10.572359 15.084188 10.523438 14.845703 10.523438 z "
     id="path4" />
</svg>
