<?xml version="1.0" encoding="UTF-8" standalone="no"?>
<svg
   xmlns:dc="http://purl.org/dc/elements/1.1/"
   xmlns:cc="http://creativecommons.org/ns#"
   xmlns:rdf="http://www.w3.org/1999/02/22-rdf-syntax-ns#"
   xmlns:svg="http://www.w3.org/2000/svg"
   xmlns="http://www.w3.org/2000/svg"
   xmlns:sodipodi="http://sodipodi.sourceforge.net/DTD/sodipodi-0.dtd"
   xmlns:inkscape="http://www.inkscape.org/namespaces/inkscape"
   version="1.1"
   width="24"
   height="24"
   viewBox="0 0 24 24"
   id="svg2"
   inkscape:version="0.91 r13725"
   sodipodi:docname="unit_cm.svg">
  <metadata
     id="metadata10">
    <rdf:RDF>
      <cc:Work
         rdf:about="">
        <dc:format>image/svg+xml</dc:format>
        <dc:type
           rdf:resource="http://purl.org/dc/dcmitype/StillImage" />
        <dc:title></dc:title>
      </cc:Work>
    </rdf:RDF>
  </metadata>
  <defs
     id="defs8" />
  <sodipodi:namedview
     pagecolor="#ffffff"
     bordercolor="#666666"
     borderopacity="1"
     objecttolerance="10"
     gridtolerance="10"
     guidetolerance="10"
     inkscape:pageopacity="0"
     inkscape:pageshadow="2"
     inkscape:window-width="1366"
     inkscape:window-height="706"
     id="namedview6"
     showgrid="false"
     showguides="true"
     inkscape:guide-bbox="true"
     inkscape:zoom="19.666667"
     inkscape:cx="8.1731141"
     inkscape:cy="14.170347"
     inkscape:window-x="0"
     inkscape:window-y="25"
     inkscape:window-maximized="1"
     inkscape:current-layer="svg2">
    <sodipodi:guide
       position="14.033898,8.6440678"
       orientation="0,1"
       id="guide3338" />
  </sodipodi:namedview>
  <path
     d="M 5 3 C 3.89 3 3 3.89 3 5 L 3 19 A 2 2 0 0 0 5 21 L 19 21 A 2 2 0 0 0 21 19 L 21 5 C 21 3.89 20.1 3 19 3 L 5 3 z M 7.5019531 9.2929688 C 8.2427043 9.2929688 8.8348462 9.4979335 9.2792969 9.90625 C 9.7237475 10.314566 9.9453125 10.86931 9.9453125 11.570312 L 8.4609375 11.570312 C 8.4609375 11.263173 8.374616 11.009286 8.2011719 10.810547 C 8.0277277 10.611809 7.7853635 10.513672 7.4746094 10.513672 C 7.0518392 10.513672 6.7627989 10.670007 6.6074219 10.984375 C 6.4556582 11.298742 6.3789064 11.723028 6.3789062 12.257812 L 6.3789062 12.421875 C 6.3789062 12.967502 6.4556582 13.394031 6.6074219 13.701172 C 6.7591855 14.008313 7.0504717 14.160156 7.4804688 14.160156 C 7.7731557 14.160156 8.0087821 14.080573 8.1894531 13.917969 C 8.3701241 13.755365 8.4609375 13.536339 8.4609375 13.261719 L 9.9453125 13.261719 C 9.9453125 13.879613 9.7122249 14.38768 9.2460938 14.785156 C 8.7835759 15.179019 8.2054953 15.375 7.5117188 15.375 C 6.6155906 15.375 5.9393731 15.104513 5.4804688 14.5625 C 5.0251778 14.020487 4.796875 13.307163 4.796875 12.421875 L 4.796875 12.257812 C 4.796875 11.376138 5.0251778 10.662813 5.4804688 10.117188 C 5.9393731 9.5679469 6.6130518 9.2929687 7.5019531 9.2929688 z M 14.037109 9.2929688 C 14.420132 9.2929688 14.741786 9.3745054 15.001953 9.5371094 C 15.265732 9.6997132 15.468452 9.9536001 15.609375 10.296875 C 15.79366 9.9752806 16.026747 9.7281317 16.308594 9.5546875 C 16.594054 9.3812434 16.936508 9.2929688 17.333984 9.2929688 C 17.926585 9.2929688 18.385729 9.4886568 18.710938 9.8789062 C 19.039759 10.269156 19.203125 10.882097 19.203125 11.716797 L 19.203125 15.267578 L 17.621094 15.267578 L 17.621094 11.710938 C 17.621094 11.25926 17.55108 10.949128 17.410156 10.779297 C 17.269233 10.609466 17.052452 10.523437 16.759766 10.523438 C 16.528506 10.523438 16.330572 10.572359 16.167969 10.669922 C 16.008978 10.767484 15.880766 10.907219 15.783203 11.087891 C 15.783203 11.156545 15.785463 11.21699 15.789062 11.267578 C 15.792662 11.314551 15.794922 11.36152 15.794922 11.412109 L 15.794922 15.267578 L 14.216797 15.267578 L 14.216797 11.710938 C 14.216797 11.2701 14.144537 10.962507 14 10.789062 C 13.859076 10.612004 13.642296 10.523437 13.349609 10.523438 C 13.129191 10.523438 12.940534 10.565329 12.785156 10.648438 C 12.62978 10.727933 12.499028 10.842084 12.390625 10.990234 L 12.390625 15.267578 L 10.8125 15.267578 L 10.8125 9.4023438 L 12.28125 9.4023438 L 12.347656 10.150391 L 12.363281 10.15625 C 12.547566 9.8780164 12.778407 9.6637753 13.056641 9.515625 C 13.334874 9.3674748 13.661314 9.2929687 14.037109 9.2929688 z "
     id="path4" />
</svg>
